<svg id="Capa_1" data-name="Capa 1" xmlns="http://www.w3.org/2000/svg" viewBox="0 0 600 600"><defs><style>.cls-1{fill:#3d097f;}</style></defs><title>saturn</title><path class="cls-1" d="M594.86,359.93a42.35,42.35,0,0,0-6.26-17.73c-8.93-15-21.7-26.44-35.35-36.93-22.52-17.3-47.16-31.1-72.64-43.49-2.59-1.27-4.21-2.69-5-6-16.45-68.19-57.83-114.43-125.43-133S223,122.5,174,173.1a8.54,8.54,0,0,1-7.78,2.9q-21.87-2.08-43.86-2.1a332.65,332.65,0,0,0-52.78,3.23c-16.5,2.49-32.77,6-47.26,14.84C3.48,203.46-.89,220,9.63,239.35c6.55,12,16,21.67,26.28,30.44,27.33,23.3,58.58,40.26,90.83,55.53a8.73,8.73,0,0,1,5.48,6.77c16,71.38,78.57,127.37,150.88,134.66,56.55,5.71,105.47-11.27,145.67-51.61,6-6,11.51-7.46,19.48-7,31.12,1.9,62.25,2.05,93-4.2,14.75-3,29.07-7.2,41.2-16.7C591.32,380.33,595.92,371.37,594.86,359.93Zm-46.06,11c-10.33,7.77-22.61,10.25-35,12-31.57,4.46-63.12,2.29-94.58-1.23A881.57,881.57,0,0,1,252.44,347c-49.82-15.66-98.84-33.39-145-58.23C88.26,278.42,69.71,267,54.44,251a52.7,52.7,0,0,1-9.6-13.3c-5.23-10.76-3-19.73,6.87-26.55,6.95-4.81,14.9-7.32,23.07-9,26-5.42,52.22-4.79,79.29-3.16a176.31,176.31,0,0,0-22.48,55.58c-1.31,6.16-4.59,13.17-2.15,18.45,2.26,4.86,9.92,5.89,15.31,8.36,61.74,28.3,126.29,48,192.48,62.66a813.82,813.82,0,0,0,106.42,16.57c5.64.49,11.3.66,16.92,1.28,3.37.37,5-.79,6.23-4a182.69,182.69,0,0,0,12.67-64.73c0-1.17,0-2.34.07-3.5a6.17,6.17,0,0,1,.51-1.31,317.6,317.6,0,0,1,29.47,16.46C522,312.57,534,321,544.16,331.63c4.5,4.71,8.54,9.76,11,15.91C558.91,357,557,364.8,548.8,370.94Z"/></svg>